<svg xmlns="http://www.w3.org/2000/svg" viewBox="0 0 400 220" role="img" aria-label="大脑与激素影响性别发展的示意图">
  <defs>
    <marker id="arrow" markerWidth="6" markerHeight="6" refX="5" refY="3" orient="auto">
      <path d="M0,0 L6,3 L0,6 Z" fill="#2c5282"/>
    </marker>
  </defs>
  <rect width="400" height="220" fill="#f8fafc" rx="6"/>
  <path d="M120 40 C80 50 60 90 70 130 C75 160 95 185 130 195 C160 200 190 185 200 155 C210 125 205 90 185 65 C165 45 145 35 120 40Z" fill="#dde4ed" stroke="#2c5282" stroke-width="2"/>
  <ellipse cx="155" cy="110" rx="25" ry="18" fill="#c5d4e8" stroke="#2c5282" stroke-width="1"/>
  <text x="155" y="115" text-anchor="middle" font-size="9" fill="#2c5282">前额叶</text>
  <circle cx="280" cy="80" r="35" fill="#e8f0f8" stroke="#2d6a4f" stroke-width="2"/>
  <text x="280" y="75" text-anchor="middle" font-size="10" fill="#2d6a4f">激素</text>
  <text x="280" y="90" text-anchor="middle" font-size="9" fill="#4a4a4a">环境</text>
  <path d="M200 100 L250 85" stroke="#2c5282" stroke-width="1.5" marker-end="url(#arrow)"/>
  <text x="200" y="175" text-anchor="middle" font-family="sans-serif" font-size="11" fill="#4a4a4a">多维影响 · 非单一决定</text>
</svg>
